# xmcd
#
# Track frame offsets:
#	150
#	13274
#	27406
#	40290
#	51050
#	62620
#	73459
#	86245
#	98633
#	109795
#	122922
#	133215
#	146086
#	155823
#	169259
#	181034
#	193049
#	206404
#	218541
#	230769
#	243696
#	256761
#	267081
#	278185
#	291626
#	304010
#
# Disc length: 4238 seconds
# Revision: 0
# Processed by: cddbd v1.5.2PL0 Copyright (c) Steve Scherf et al.
# Submitted via: dBpowerAMP V12.0
#
DISCID=97108c1a
DTITLE=Howlin' Wolf - Anthology
DYEAR=1900
DGENRE=Blues
TTITLE0=Evil
TTITLE1=Smokestack lightnin'
TTITLE2=I asked for water
TTITLE3=Who's been talking
TTITLE4=Sitting on the top of the world
TTITLE5=Wang dang doodle
TTITLE6=Back door man
TTITLE7=Spoonful
TTITLE8=The red rooster
TTITLE9=I ain't superstitious
TTITLE10=Shake for me
TTITLE11=Killing floor
TTITLE12=The natchez burnin'
TTITLE13=Tell me
TTITLE14=Poor boy
TTITLE15=My country sugar mama
TTITLE16=No place to go
TTITLE17=Built for comfort
TTITLE18=Ooh baby, hold me
TTITLE19=Tell me what I've done
TTITLE20=I'm the wolf
TTITLE21=I've been abused
TTITLE22=You'll be mine
TTITLE23=Tail dragger
TTITLE24=Louise
TTITLE25=Commit a crime
EXTD=
EXTT0=
EXTT1=
EXTT2=
EXTT3=
EXTT4=
EXTT5=
EXTT6=
EXTT7=
EXTT8=
EXTT9=
EXTT10=
EXTT11=
EXTT12=
EXTT13=
EXTT14=
EXTT15=
EXTT16=
EXTT17=
EXTT18=
EXTT19=
EXTT20=
EXTT21=
EXTT22=
EXTT23=
EXTT24=
EXTT25=
PLAYORDER=
